<mxfile host="Electron" modified="2024-11-21T13:58:27.803Z" agent="Mozilla/5.0 (Macintosh; Intel Mac OS X 10_15_7) AppleWebKit/537.36 (KHTML, like Gecko) draw.io/24.4.13 Chrome/124.0.6367.207 Electron/30.0.6 Safari/537.36" etag="XlKYaAB8d94J7kl125Tt" version="24.4.13" type="device">
  <diagram name="Page-1" id="EKcXYYI-9VWgCSBTyImW">
    <mxGraphModel dx="1195" dy="712" grid="1" gridSize="10" guides="1" tooltips="1" connect="1" arrows="1" fold="1" page="1" pageScale="1" pageWidth="1169" pageHeight="827" math="0" shadow="0">
      <root>
        <mxCell id="0" />
        <mxCell id="1" parent="0" />
        <mxCell id="TlXXX5nX9itKZY6AOsnD-13" value="" style="group;fillColor=#dae8fc;strokeColor=#6c8ebf;" vertex="1" connectable="0" parent="1">
          <mxGeometry x="650" y="150" width="340" height="420" as="geometry" />
        </mxCell>
        <mxCell id="TlXXX5nX9itKZY6AOsnD-11" value="" style="rounded=0;whiteSpace=wrap;html=1;align=left;" vertex="1" parent="TlXXX5nX9itKZY6AOsnD-13">
          <mxGeometry width="340" height="420" as="geometry" />
        </mxCell>
        <mxCell id="TlXXX5nX9itKZY6AOsnD-12" value="Klientside" style="text;html=1;align=center;verticalAlign=middle;whiteSpace=wrap;rounded=0;fontSize=18;" vertex="1" parent="TlXXX5nX9itKZY6AOsnD-13">
          <mxGeometry x="230" width="110" height="30" as="geometry" />
        </mxCell>
        <mxCell id="TlXXX5nX9itKZY6AOsnD-9" value="JSON-LD Framing" style="shape=process;whiteSpace=wrap;html=1;backgroundOutline=1;" vertex="1" parent="TlXXX5nX9itKZY6AOsnD-13">
          <mxGeometry x="40" y="40" width="120" height="60" as="geometry" />
        </mxCell>
        <mxCell id="TlXXX5nX9itKZY6AOsnD-15" style="edgeStyle=orthogonalEdgeStyle;rounded=0;orthogonalLoop=1;jettySize=auto;html=1;exitX=0.5;exitY=1;exitDx=0;exitDy=0;entryX=0.5;entryY=0;entryDx=0;entryDy=0;curved=1;strokeWidth=2;fillColor=#d5e8d4;strokeColor=#82b366;" edge="1" parent="TlXXX5nX9itKZY6AOsnD-13" source="TlXXX5nX9itKZY6AOsnD-14" target="TlXXX5nX9itKZY6AOsnD-3">
          <mxGeometry relative="1" as="geometry" />
        </mxCell>
        <mxCell id="TlXXX5nX9itKZY6AOsnD-14" value="&lt;div&gt;&lt;b&gt;Data (JSON-LD)&lt;/b&gt;&lt;/div&gt;&lt;div&gt;&lt;span style=&quot;background-color: initial;&quot;&gt;&lt;br&gt;&lt;/span&gt;&lt;/div&gt;&lt;div&gt;&lt;span style=&quot;background-color: initial;&quot;&gt;Strukturert etter klients ønske. Kan parses som vanlig JSON&lt;/span&gt;&lt;br&gt;&lt;/div&gt;" style="rounded=1;whiteSpace=wrap;html=1;" vertex="1" parent="TlXXX5nX9itKZY6AOsnD-13">
          <mxGeometry x="130" y="140" width="120" height="90" as="geometry" />
        </mxCell>
        <mxCell id="TlXXX5nX9itKZY6AOsnD-3" value="Konsument" style="rounded=0;whiteSpace=wrap;html=1;strokeWidth=4;fillColor=#e1d5e7;strokeColor=#9673a6;" vertex="1" parent="TlXXX5nX9itKZY6AOsnD-13">
          <mxGeometry x="110" y="310" width="120" height="60" as="geometry" />
        </mxCell>
        <mxCell id="TlXXX5nX9itKZY6AOsnD-10" style="edgeStyle=orthogonalEdgeStyle;rounded=0;orthogonalLoop=1;jettySize=auto;html=1;exitX=0.5;exitY=1;exitDx=0;exitDy=0;curved=1;entryX=0.5;entryY=0;entryDx=0;entryDy=0;strokeWidth=2;fillColor=#d5e8d4;strokeColor=#82b366;" edge="1" parent="TlXXX5nX9itKZY6AOsnD-13" source="TlXXX5nX9itKZY6AOsnD-9" target="TlXXX5nX9itKZY6AOsnD-14">
          <mxGeometry relative="1" as="geometry">
            <mxPoint x="-60" y="170" as="targetPoint" />
          </mxGeometry>
        </mxCell>
        <mxCell id="TlXXX5nX9itKZY6AOsnD-16" value="Prosessering i henhold til STIRData.&lt;div&gt;&lt;br&gt;&lt;/div&gt;&lt;div&gt;Endringer i JSON-strukturen/API-et påvirker ikke konsumenter så lenge dataen er i henhold til STIRData&lt;/div&gt;" style="rounded=0;whiteSpace=wrap;html=1;fillColor=#d5e8d4;strokeColor=#82b366;fillStyle=dashed;fontColor=#006600;gradientColor=none;shadow=1;" vertex="1" parent="TlXXX5nX9itKZY6AOsnD-13">
          <mxGeometry x="-110" y="110" width="200" height="80" as="geometry" />
        </mxCell>
        <mxCell id="TlXXX5nX9itKZY6AOsnD-6" style="edgeStyle=orthogonalEdgeStyle;rounded=0;orthogonalLoop=1;jettySize=auto;html=1;exitX=0.5;exitY=0;exitDx=0;exitDy=0;entryX=0;entryY=0.5;entryDx=0;entryDy=0;curved=1;strokeWidth=2;" edge="1" parent="1" source="TlXXX5nX9itKZY6AOsnD-2" target="TlXXX5nX9itKZY6AOsnD-7">
          <mxGeometry relative="1" as="geometry">
            <mxPoint x="280" y="240.0000000000001" as="targetPoint" />
          </mxGeometry>
        </mxCell>
        <mxCell id="TlXXX5nX9itKZY6AOsnD-2" value="&lt;div&gt;Enhetsregisteret&lt;/div&gt;" style="rounded=0;whiteSpace=wrap;html=1;strokeWidth=4;fillColor=#e1d5e7;strokeColor=#9673a6;" vertex="1" parent="1">
          <mxGeometry x="120" y="360" width="120" height="60" as="geometry" />
        </mxCell>
        <mxCell id="TlXXX5nX9itKZY6AOsnD-4" value="STIRData" style="rounded=0;whiteSpace=wrap;html=1;dashed=1;fillColor=#dae8fc;strokeColor=#6c8ebf;" vertex="1" parent="1">
          <mxGeometry x="400" y="80" width="120" height="40" as="geometry" />
        </mxCell>
        <mxCell id="TlXXX5nX9itKZY6AOsnD-8" style="edgeStyle=orthogonalEdgeStyle;rounded=0;orthogonalLoop=1;jettySize=auto;html=1;exitX=1;exitY=0.5;exitDx=0;exitDy=0;entryX=0;entryY=0.5;entryDx=0;entryDy=0;curved=1;strokeWidth=2;fillColor=#d5e8d4;strokeColor=#82b366;" edge="1" parent="1" source="TlXXX5nX9itKZY6AOsnD-7" target="TlXXX5nX9itKZY6AOsnD-9">
          <mxGeometry relative="1" as="geometry">
            <mxPoint x="640" y="229.96296296296293" as="targetPoint" />
          </mxGeometry>
        </mxCell>
        <mxCell id="TlXXX5nX9itKZY6AOsnD-36" value="konsumeres som RDF (JSON-LD)" style="edgeLabel;html=1;align=center;verticalAlign=middle;resizable=0;points=[];" vertex="1" connectable="0" parent="TlXXX5nX9itKZY6AOsnD-8">
          <mxGeometry x="-0.1707" y="8" relative="1" as="geometry">
            <mxPoint x="19" y="-7" as="offset" />
          </mxGeometry>
        </mxCell>
        <mxCell id="TlXXX5nX9itKZY6AOsnD-19" style="edgeStyle=orthogonalEdgeStyle;rounded=0;orthogonalLoop=1;jettySize=auto;html=1;exitX=1;exitY=0.5;exitDx=0;exitDy=0;entryX=0;entryY=0.5;entryDx=0;entryDy=0;curved=1;strokeWidth=2;fillColor=#f8cecc;strokeColor=#b85450;" edge="1" parent="1" source="TlXXX5nX9itKZY6AOsnD-7" target="TlXXX5nX9itKZY6AOsnD-3">
          <mxGeometry relative="1" as="geometry">
            <Array as="points">
              <mxPoint x="510" y="255" />
              <mxPoint x="510" y="490" />
            </Array>
          </mxGeometry>
        </mxCell>
        <mxCell id="TlXXX5nX9itKZY6AOsnD-20" value="Konsumeres direkte&lt;div&gt;som JSON-dokument&lt;/div&gt;" style="edgeLabel;html=1;align=center;verticalAlign=middle;resizable=0;points=[];" vertex="1" connectable="0" parent="TlXXX5nX9itKZY6AOsnD-19">
          <mxGeometry x="0.6267" y="3" relative="1" as="geometry">
            <mxPoint x="39" y="3" as="offset" />
          </mxGeometry>
        </mxCell>
        <mxCell id="TlXXX5nX9itKZY6AOsnD-31" style="edgeStyle=orthogonalEdgeStyle;rounded=0;orthogonalLoop=1;jettySize=auto;html=1;exitX=0.5;exitY=0;exitDx=0;exitDy=0;entryX=0.5;entryY=1;entryDx=0;entryDy=0;curved=1;dashed=1;" edge="1" parent="1" source="TlXXX5nX9itKZY6AOsnD-7" target="TlXXX5nX9itKZY6AOsnD-4">
          <mxGeometry relative="1" as="geometry" />
        </mxCell>
        <mxCell id="TlXXX5nX9itKZY6AOsnD-32" value="i henhold til" style="edgeLabel;html=1;align=center;verticalAlign=middle;resizable=0;points=[];fontStyle=1" vertex="1" connectable="0" parent="TlXXX5nX9itKZY6AOsnD-31">
          <mxGeometry x="0.3047" y="5" relative="1" as="geometry">
            <mxPoint x="-31" y="5" as="offset" />
          </mxGeometry>
        </mxCell>
        <mxCell id="TlXXX5nX9itKZY6AOsnD-7" value="RDF-Data (JSON-LD)" style="rounded=1;whiteSpace=wrap;html=1;fontStyle=1" vertex="1" parent="1">
          <mxGeometry x="230" y="240" width="130" height="30" as="geometry" />
        </mxCell>
        <mxCell id="TlXXX5nX9itKZY6AOsnD-30" value="&lt;font color=&quot;#330000&quot;&gt;Prosessert som vanlig JSON-dokument.&lt;/font&gt;&lt;div&gt;&lt;font color=&quot;#330000&quot;&gt;&lt;br&gt;&lt;/font&gt;&lt;/div&gt;&lt;div&gt;&lt;font color=&quot;#330000&quot;&gt;Endringer i JSON-strukturen/API-et er breaking changes og påvirker konsumenter.&lt;/font&gt;&lt;/div&gt;" style="rounded=0;whiteSpace=wrap;html=1;fillColor=#f8cecc;strokeColor=#b85450;fillStyle=zigzag-line;opacity=70;" vertex="1" parent="1">
          <mxGeometry x="360" y="480" width="240" height="70" as="geometry" />
        </mxCell>
        <mxCell id="TlXXX5nX9itKZY6AOsnD-33" style="edgeStyle=orthogonalEdgeStyle;rounded=0;orthogonalLoop=1;jettySize=auto;html=1;exitX=0.5;exitY=0;exitDx=0;exitDy=0;entryX=1;entryY=0.5;entryDx=0;entryDy=0;curved=1;dashed=1;" edge="1" parent="1" source="TlXXX5nX9itKZY6AOsnD-9" target="TlXXX5nX9itKZY6AOsnD-4">
          <mxGeometry relative="1" as="geometry" />
        </mxCell>
        <mxCell id="TlXXX5nX9itKZY6AOsnD-35" value="i henhold til" style="edgeLabel;html=1;align=center;verticalAlign=middle;resizable=0;points=[];fontStyle=1" vertex="1" connectable="0" parent="TlXXX5nX9itKZY6AOsnD-33">
          <mxGeometry x="-0.1076" y="21" relative="1" as="geometry">
            <mxPoint as="offset" />
          </mxGeometry>
        </mxCell>
      </root>
    </mxGraphModel>
  </diagram>
</mxfile>
